<?xml version="1.0" encoding="utf-8"?>
<svg id="master-artboard" viewBox="0 0 203.94509887695312 201.9117431640625" version="1.1" xmlns="http://www.w3.org/2000/svg" x="0px" y="0px" style="enable-background:new 0 0 1400 980;" width="203.94509887695312px" height="201.9117431640625px"><rect id="ee-background" x="0" y="0" width="203.94509887695312" height="201.9117431640625" style="fill: white; fill-opacity: 0; pointer-events: none;"/>

<path class="st4" d="M1224.9,140.3h-135c-14.6,0-26.5,11.9-26.5,26.5v135c0,14.6,11.9,26.5,26.5,26.5h135&#10;&#9;&#9;&#9;c14.6,0,26.5-11.9,26.5-26.5v-135C1251.4,152.2,1239.5,140.3,1224.9,140.3z" style="fill: rgb(255, 255, 255);" transform="matrix(1, 0, 0, 1, -1053.8785543441772, -128.6869707107544)"/><g transform="matrix(1, 0, 0, 1, -1053.8785543441772, -128.6869707107544)">
				<path class="st3" d="M1224.9,149.3h-18c-1.1,0-2-0.9-2-2s0.9-2,2-2h18c1.1,0,2,0.9,2,2S1226,149.3,1224.9,149.3z" style="fill: rgb(93, 32, 128);"/>
			<path d="M 1674.69580078125 392.13726806640625 L 1674.69580078125 392.13726806640625" style="fill: rgb(255, 255, 255); fill-opacity: 1; stroke: rgb(0, 0, 0); stroke-opacity: 1; stroke-width: 0; paint-order: fill;"/><path d="M 1152.0277099609375 169.93316650390625" style="fill: rgb(93, 32, 128); fill-opacity: 1; stroke: rgb(0, 0, 0); stroke-opacity: 1; stroke-width: 0; paint-order: fill;"/></g><path class="st3" d="M1070.4,303.8c-1.1,0-2-0.9-2-2v-135c0-11.9,9.6-21.5,21.5-21.5h93.8c1.1,0,2,0.9,2,2s-0.9,2-2,2h-93.8&#10;&#9;&#9;&#9;&#9;&#9;c-9.6,0-17.5,7.9-17.5,17.5v135C1072.4,302.9,1071.5,303.8,1070.4,303.8z" style="fill: rgb(93, 32, 128);" transform="matrix(1, 0, 0, 1, -1053.8785543441772, -128.6869707107544)"/><path class="st7" d="M1180.6,242.6l33.1-33.1c6.4-6.4,6.4-16.9,0-23.3c-6.4-6.4-16.9-6.4-23.3,0l-33.1,33.1l-33.1-33.1&#10;&#9;&#9;&#9;&#9;c-6.4-6.4-16.9-6.4-23.3,0c-6.4,6.4-6.4,16.9,0,23.3l33.1,33.1l-33.1,33.1c-6.4,6.4-6.4,16.9,0,23.3c3.2,3.2,7.4,4.8,11.6,4.8&#10;&#9;&#9;&#9;&#9;s8.4-1.6,11.6-4.8l33.1-33.1l33.1,33.1c3.2,3.2,7.4,4.8,11.6,4.8s8.4-1.6,11.6-4.8c6.4-6.4,6.4-16.9,0-23.3L1180.6,242.6z" style="fill: rgb(145, 50, 200);" transform="matrix(1, 0, 0, 1, -1053.8785543441772, -128.6869707107544)"/><path class="st3" d="M1180.6,234.7l33.1-33.1c6.4-6.4,6.4-16.9,0-23.3c-6.4-6.4-16.9-6.4-23.3,0l-33.1,33.1l-33.1-33.1&#10;&#9;&#9;&#9;&#9;c-6.4-6.4-16.9-6.4-23.3,0s-6.4,16.9,0,23.3l33.1,33.1l-33.1,33.1c-6.4,6.4-6.4,16.9,0,23.3c3.2,3.2,7.4,4.8,11.6,4.8&#10;&#9;&#9;&#9;&#9;s8.4-1.6,11.6-4.8l33.1-33.1l33.1,33.1c3.2,3.2,7.4,4.8,11.6,4.8s8.4-1.6,11.6-4.8c6.4-6.4,6.4-16.9,0-23.3L1180.6,234.7z" style="fill: rgb(93, 32, 128);" transform="matrix(1, 0, 0, 1, -1053.8785543441772, -128.6869707107544)"/>
<path d="M 1218.0234375 810.705322265625 L 1030.77978515625 644.94873046875 L 1030.77978515625 644.94873046875" style="fill: rgb(145, 50, 200); fill-opacity: 1; stroke: rgb(0, 0, 0); stroke-opacity: 1; stroke-width: 0; paint-order: fill;" transform="matrix(1, 0, 0, 1, -1154.4066305160522, -592.1916399002075)"/></svg>