<?xml version="1.0" encoding="utf-8"?>
<svg id="master-artboard" viewBox="0 0 219.20932006835938 234.25668334960938" version="1.1" xmlns="http://www.w3.org/2000/svg" x="0px" y="0px" style="enable-background:new 0 0 1096 780;" width="219.20932006835938px" height="234.25668334960938px"><rect id="ee-background" x="0" y="0" width="219.20932006835938" height="234.25668334960938" style="fill: white; fill-opacity: 0; pointer-events: none;"/>


<g transform="matrix(1, 0, 0, 1, -545.7433242797852, -60.945953369140625)">
	<path class="st1" d="M725,74H584c-19.3,0-35,15.7-35,35v141c0,19.3,15.7,35,35,35h141c19.3,0,35-15.7,35-35V109&#10;&#9;&#9;C760,89.7,744.3,74,725,74z M737,234.6c0,15.2-12.3,27.4-27.4,27.4H599.4c-15.2,0-27.4-12.3-27.4-27.4V124.4&#10;&#9;&#9;c0-15.2,12.3-27.4,27.4-27.4h110.1c15.2,0,27.4,12.3,27.4,27.4V234.6z" style="fill: rgb(93, 32, 128);"/>
	<path class="st1" d="M717,126.7l-9.7-9.7c-3.9-3.9-10.2-3.9-14.1,0l-38.9,38.9L615.4,117c-3.9-3.9-10.2-3.9-14.1,0l-9.7,9.7&#10;&#9;&#9;c-3.9,3.9-3.9,10.2,0,14.1l38.9,38.9l-38.9,38.9c-3.9,3.9-3.9,10.2,0,14.1l9.7,9.7c3.9,3.9,10.2,3.9,14.1,0l38.9-38.9l38.9,38.9&#10;&#9;&#9;c3.9,3.9,10.2,3.9,14.1,0l9.7-9.7c3.9-3.9,3.9-10.2,0-14.1l-38.9-38.9l38.9-38.9C720.9,137,720.9,130.6,717,126.7z" style="fill: rgb(93, 32, 128);"/>
<path d="M 576.9933471679688 86.6554183959961 L 761.2163696289062 463.4122314453125" style="fill: rgb(93, 32, 128); fill-opacity: 1; stroke: rgb(0, 0, 0); stroke-opacity: 1; stroke-width: 0; paint-order: fill;"/><path d="M 921.8920288085938 358.1419372558594" style="fill: rgb(93, 32, 128); fill-opacity: 1; stroke: rgb(0, 0, 0); stroke-opacity: 1; stroke-width: 0; paint-order: fill;"/></g>




</svg>